<?xml version="1.0" standalone="no"?>
<!DOCTYPE svg PUBLIC "-//W3C//DTD SVG 20010904//EN"
 "http://www.w3.org/TR/2001/REC-SVG-20010904/DTD/svg10.dtd">
<svg version="1.0" xmlns="http://www.w3.org/2000/svg"
 width="512.000000pt" height="512.000000pt" viewBox="0 0 512.000000 512.000000"
 preserveAspectRatio="xMidYMid meet">
<metadata>
Created by potrace 1.14, written by Peter Selinger 2001-2017
</metadata>
<g transform="translate(0.000000,512.000000) scale(0.100000,-0.100000)"
fill="#000000" stroke="none">
<path d="M1479 5065 c-84 -17 -189 -60 -262 -109 -91 -60 -198 -182 -245 -278
-55 -111 -71 -180 -79 -324 l-6 -121 -146 -6 c-163 -5 -236 -23 -352 -83 -170
-89 -306 -260 -365 -459 -17 -55 -18 -135 -22 -1060 -2 -652 1 -1027 7 -1078
23 -169 84 -290 211 -417 124 -124 244 -186 406 -210 99 -14 886 -13 918 1 51
23 55 103 7 128 -13 7 -164 11 -444 11 -261 0 -446 4 -483 11 -32 6 -97 28
-142 50 -163 75 -292 244 -322 419 -8 46 -10 364 -8 1070 l3 1005 23 65 c65
180 206 319 377 373 l70 22 1495 0 1495 0 67 -23 c170 -59 303 -191 366 -363
l27 -74 3 -1012 c3 -1115 4 -1087 -59 -1217 -18 -37 -59 -96 -91 -131 -111
-121 -228 -177 -406 -194 -138 -13 -173 -31 -269 -139 -134 -151 -323 -334
-463 -446 -142 -114 -391 -286 -414 -286 -27 0 -23 27 19 120 63 140 112 276
151 418 39 142 40 158 19 210 -21 49 -52 81 -100 103 -36 17 -70 19 -333 19
l-293 0 -24 -25 c-32 -31 -32 -69 0 -100 l24 -25 284 0 c246 0 286 -2 298 -16
23 -28 -66 -314 -167 -535 -33 -71 -44 -109 -44 -144 0 -68 36 -126 96 -155
88 -43 147 -19 402 167 240 175 449 364 648 586 l79 89 90 9 c166 17 259 48
375 124 210 138 328 369 330 643 l0 82 103 0 c252 0 407 60 567 220 94 94 139
163 176 268 38 111 44 184 44 615 l0 408 -25 24 c-31 32 -69 32 -100 0 l-25
-24 0 -413 c0 -464 -4 -501 -66 -628 -27 -53 -58 -96 -109 -147 -120 -121
-259 -172 -462 -173 l-102 0 -3 868 -3 867 -28 80 c-41 117 -100 210 -186 295
-90 88 -158 131 -278 174 l-88 31 -1302 3 -1303 2 0 83 c0 108 22 204 65 296
47 99 159 211 259 259 133 64 59 62 1641 62 1584 0 1511 2 1643 -62 85 -41
208 -160 247 -238 71 -141 69 -119 75 -618 l5 -454 25 -20 c17 -14 33 -18 54
-14 64 13 61 -7 61 489 0 508 0 509 -76 662 -88 180 -262 323 -464 382 -56 17
-161 18 -1545 20 -1203 1 -1498 -1 -1551 -12z"/>
<path d="M904 2800 c-54 -17 -128 -73 -161 -123 -129 -193 8 -447 242 -447
304 0 402 410 131 547 -56 29 -158 40 -212 23z m153 -160 c124 -75 73 -263
-72 -263 -54 0 -98 26 -125 76 -52 92 17 207 125 207 22 0 54 -9 72 -20z"/>
<path d="M1592 2791 c-74 -26 -122 -68 -160 -142 -32 -60 -34 -69 -30 -145 3
-65 10 -90 31 -126 32 -54 86 -104 141 -129 51 -23 155 -25 218 -3 139 47 217
209 174 359 -14 46 -29 70 -75 116 -87 86 -185 109 -299 70z m166 -151 c101
-62 94 -204 -13 -251 -134 -59 -253 91 -171 216 34 52 126 70 184 35z"/>
<path d="M2296 2794 c-69 -22 -156 -110 -181 -183 -38 -117 2 -248 100 -323
62 -47 117 -62 204 -56 204 15 323 231 230 417 -65 130 -209 189 -353 145z
m161 -150 c87 -42 103 -163 30 -230 -46 -42 -95 -50 -152 -25 -62 27 -87 70
-82 138 7 104 108 162 204 117z"/>
<path d="M3014 2800 c-54 -17 -128 -73 -161 -123 -129 -193 8 -447 242 -447
304 0 402 409 131 547 -56 29 -158 40 -212 23z m153 -160 c124 -75 73 -263
-72 -263 -54 0 -98 26 -125 76 -52 92 17 207 125 207 22 0 54 -9 72 -20z"/>
</g>
</svg>
